<?xml version="1.0" encoding="UTF-8" standalone="no"?>
<svg
   xmlns:dc="http://purl.org/dc/elements/1.1/"
   xmlns:cc="http://creativecommons.org/ns#"
   xmlns:rdf="http://www.w3.org/1999/02/22-rdf-syntax-ns#"
   xmlns:svg="http://www.w3.org/2000/svg"
   xmlns="http://www.w3.org/2000/svg"
   xmlns:sodipodi="http://sodipodi.sourceforge.net/DTD/sodipodi-0.dtd"
   xmlns:inkscape="http://www.inkscape.org/namespaces/inkscape"
   width="1em"
   height="1em"
   viewBox="0 0 16 16"
   class="bi bi-arrows-collapse"
   fill="currentColor"
   version="1.1"
   id="svg4"
   sodipodi:docname="icon-arrows-collapse.svg"
   inkscape:version="0.92.4 (5da689c313, 2019-01-14)">
  <metadata
     id="metadata10">
    <rdf:RDF>
      <cc:Work
         rdf:about="">
        <dc:format>image/svg+xml</dc:format>
        <dc:type
           rdf:resource="http://purl.org/dc/dcmitype/StillImage" />
      </cc:Work>
    </rdf:RDF>
  </metadata>
  <defs
     id="defs8" />
  <sodipodi:namedview
     pagecolor="#ffffff"
     bordercolor="#666666"
     borderopacity="1"
     objecttolerance="10"
     gridtolerance="10"
     guidetolerance="10"
     inkscape:pageopacity="0"
     inkscape:pageshadow="2"
     inkscape:window-width="1920"
     inkscape:window-height="1017"
     id="namedview6"
     showgrid="false"
     inkscape:zoom="41.7193"
     inkscape:cx="9.1827207"
     inkscape:cy="9.0735063"
     inkscape:window-x="-8"
     inkscape:window-y="-7"
     inkscape:window-maximized="1"
     inkscape:current-layer="svg4" />
  <path
     fill-rule="evenodd"
     d="M1 8a.5.5 0 0 1 .5-.5h13a.5.5 0 0 1 0 1h-13A.5.5 0 0 1 1 8zm7-8a.5.5 0 0 1 .5.5v3.793l1.146-1.147a.5.5 0 0 1 .708.708l-2 2a.5.5 0 0 1-.708 0l-2-2a.5.5 0 1 1 .708-.708L7.5 4.293V.5A.5.5 0 0 1 8 0zm-.5 11.707l-1.146 1.147a.5.5 0 0 1-.708-.708l2-2a.5.5 0 0 1 .708 0l2 2a.5.5 0 0 1-.708.708L8.5 11.707V15.5a.5.5 0 0 1-1 0v-3.793z"
     id="path2" />
  <path
     style="fill:#e1e1e1;fill-opacity:1;stroke:none;stroke-width:0.09039548;stroke-miterlimit:4;stroke-dasharray:none;stroke-opacity:1"
     d="M 6.6564481,4.8282977 C 5.9130483,4.084898 5.5186441,3.6415526 5.5186441,3.5493051 c 0,-0.2383846 0.2551352,-0.4984576 0.4889936,-0.4984576 0.1717743,0 0.3242973,0.1142933 0.8764353,0.6567583 L 7.5525424,4.364364 V 2.3282828 c 0,-1.93854597 0.00639,-2.04186194 0.1333467,-2.15675822 0.180211,-0.1630887 0.4585801,-0.15207718 0.6359565,0.0251567 0.141137,0.1410236 0.1470691,0.21179283 0.1798493,2.14555582 l 0.033898,1.999722 0.6427288,-0.6455558 C 9.8722079,2.999465 10.061548,2.9157854 10.332203,3.1864407 c 0.294207,0.294207 0.213936,0.4257108 -1.0022107,1.641857 -0.954946,0.954946 -1.1697804,1.137804 -1.3367723,1.137804 -0.1669918,0 -0.3818263,-0.182858 -1.3367719,-1.137804 z"
     id="path4783"
     inkscape:connector-curvature="0" />
  <path
     style="fill:#e1e1e1;fill-opacity:1;stroke:none;stroke-width:0.09039548;stroke-miterlimit:4;stroke-dasharray:none;stroke-opacity:1"
     d="M 7.8915254,15.946221 C 7.8355932,15.92878 7.7364407,15.868 7.6711864,15.811154 c -0.1079509,-0.09404 -0.118644,-0.282665 -0.118644,-2.092848 0,-1.094221 -0.020985,-1.989492 -0.046634,-1.989492 -0.025649,0 -0.3266239,0.274576 -0.6688337,0.610169 -0.4951448,0.485571 -0.6621364,0.609958 -0.8177728,0.609131 -0.1075651,-5.69e-4 -0.2291413,-0.02345 -0.2701693,-0.05085 -0.1330885,-0.08887 -0.2429396,-0.363861 -0.2052257,-0.513751 0.020236,-0.08042 0.5359375,-0.641991 1.1460038,-1.247923 0.9215204,-0.915276 1.142467,-1.101695 1.3057447,-1.101695 0.163842,0 0.3857959,0.189263 1.3343373,1.137804 0.9135913,0.913592 1.1378043,1.174108 1.1378043,1.322034 0,0.247603 -0.220724,0.455417 -0.4837089,0.455417 -0.1765769,0 -0.319409,-0.104821 -0.8444791,-0.619738 L 8.507652,11.709673 8.487724,13.678337 C 8.469606,15.468268 8.456626,15.659334 8.3447614,15.782842 8.2071282,15.9348 8.0437615,15.993688 7.8915251,15.946218 Z"
     id="path4785"
     inkscape:connector-curvature="0" />
  <path
     style="fill:#e1e1e1;fill-opacity:1;stroke:none;stroke-width:0.09039548;stroke-miterlimit:4;stroke-dasharray:none;stroke-opacity:1"
     d="M 1.2227023,8.3340624 C 0.99606463,8.1557892 0.9868086,7.8740382 1.2009797,7.6728348 L 1.3578917,7.5254237 H 8.014539 c 6.566252,0 6.658489,0.00184 6.792241,0.1355932 0.174327,0.1743273 0.174327,0.5036389 0,0.6779662 -0.133746,0.1337458 -0.225989,0.1355932 -6.7705183,0.1355932 -6.6097175,0 -6.6356036,-5.339e-4 -6.8135594,-0.1405139 z"
     id="path4787"
     inkscape:connector-curvature="0" />
  <path
     style="fill:#e1e1e1;fill-opacity:1;stroke:#000000;stroke-width:0.03195963;stroke-miterlimit:4;stroke-dasharray:none;stroke-opacity:1"
     d=""
     id="path4789"
     inkscape:connector-curvature="0" />
</svg>
