<?xml version="1.0" encoding="UTF-8" standalone="no"?>
<svg
   xmlns:dc="http://purl.org/dc/elements/1.1/"
   xmlns:cc="http://creativecommons.org/ns#"
   xmlns:rdf="http://www.w3.org/1999/02/22-rdf-syntax-ns#"
   xmlns:svg="http://www.w3.org/2000/svg"
   xmlns="http://www.w3.org/2000/svg"
   xmlns:sodipodi="http://sodipodi.sourceforge.net/DTD/sodipodi-0.dtd"
   xmlns:inkscape="http://www.inkscape.org/namespaces/inkscape"
   width="1em"
   height="1em"
   viewBox="0 0 16 16"
   class="bi bi-arrows-expand"
   fill="currentColor"
   version="1.1"
   id="svg4"
   sodipodi:docname="icon-arrows-expand.svg"
   inkscape:version="0.92.4 (5da689c313, 2019-01-14)">
  <metadata
     id="metadata10">
    <rdf:RDF>
      <cc:Work
         rdf:about="">
        <dc:format>image/svg+xml</dc:format>
        <dc:type
           rdf:resource="http://purl.org/dc/dcmitype/StillImage" />
      </cc:Work>
    </rdf:RDF>
  </metadata>
  <defs
     id="defs8" />
  <sodipodi:namedview
     pagecolor="#ffffff"
     bordercolor="#666666"
     borderopacity="1"
     objecttolerance="10"
     gridtolerance="10"
     guidetolerance="10"
     inkscape:pageopacity="0"
     inkscape:pageshadow="2"
     inkscape:window-width="1920"
     inkscape:window-height="1017"
     id="namedview6"
     showgrid="false"
     inkscape:zoom="29.5"
     inkscape:cx="8.0578888"
     inkscape:cy="10.374677"
     inkscape:window-x="-8"
     inkscape:window-y="-7"
     inkscape:window-maximized="1"
     inkscape:current-layer="svg4" />
  <path
     fill-rule="evenodd"
     d="M1 8a.5.5 0 0 1 .5-.5h13a.5.5 0 0 1 0 1h-13A.5.5 0 0 1 1 8zM7.646.146a.5.5 0 0 1 .708 0l2 2a.5.5 0 0 1-.708.708L8.5 1.707V5.5a.5.5 0 0 1-1 0V1.707L6.354 2.854a.5.5 0 1 1-.708-.708l2-2zM8 10a.5.5 0 0 1 .5.5v3.793l1.146-1.147a.5.5 0 0 1 .708.708l-2 2a.5.5 0 0 1-.708 0l-2-2a.5.5 0 0 1 .708-.708L7.5 14.293V10.5A.5.5 0 0 1 8 10z"
     id="path2" />
  <path
     style="fill:#e1e1e1;fill-opacity:1;stroke:none;stroke-width:0;stroke-miterlimit:0;stroke-dasharray:none;stroke-dashoffset:0;stroke-opacity:1"
     d="M 7.8094366,5.9320598 C 7.7270502,5.8944164 7.636988,5.8188547 7.5976989,5.754413 7.5312074,5.6453543 7.5293252,5.5880123 7.529202,3.6676964 7.5291323,2.5816794 7.5174711,1.6931201 7.5032883,1.6931201 c -0.014183,0 -0.2925728,0.2679804 -0.6186441,0.595512 C 6.5585728,2.6161636 6.2505955,2.9059942 6.2002502,2.9326999 6.0050901,3.0362226 5.702555,2.946102 5.5883973,2.750438 5.5214045,2.6356139 5.510331,2.4036759 5.5665379,2.2925865 5.6198843,2.1871506 7.6628891,0.13928633 7.7731546,0.0807211 7.8904157,0.01844029 8.1165873,0.01833938 8.2341485,0.08051541 8.3738824,0.15441821 10.401458,2.205177 10.442355,2.3139709 c 0.08599,0.2287367 0.0013,0.471109 -0.20958,0.5996713 -0.133631,0.081476 -0.2965503,0.086414 -0.4426713,0.013419 C 9.7304363,2.897254 9.4108549,2.6037689 9.0799227,2.2748719 L 8.4782278,1.6768773 v 1.9662774 c 0,1.8532515 -0.00363,1.9730667 -0.063156,2.0843925 -0.1184875,0.221598 -0.3771079,0.3089295 -0.6056352,0.2045126 z"
     id="path4749"
     inkscape:connector-curvature="0" />
  <path
     style="fill:#e1e1e1;fill-opacity:1;stroke:none;stroke-width:0;stroke-miterlimit:0;stroke-dasharray:none;stroke-dashoffset:0;stroke-opacity:1"
     d="M 7.8850074,15.972514 C 7.8046825,15.961631 7.5565971,15.733155 6.7044252,14.88525 6.1110371,14.294833 5.6038337,13.770573 5.5773065,13.720227 c -0.026527,-0.05035 -0.048231,-0.162733 -0.048231,-0.249751 0,-0.138124 0.016432,-0.174645 0.1294067,-0.28762 0.1474029,-0.147403 0.2569012,-0.185283 0.4386128,-0.151736 0.1068302,0.01972 0.2262395,0.122157 0.7551496,0.647798 0.3455396,0.343404 0.6391837,0.624372 0.6525424,0.624372 0.013359,0 0.024346,-0.88856 0.024415,-1.974577 1.22e-4,-1.898622 0.00267,-1.97875 0.066298,-2.0831 0.1839755,-0.3017296 0.6778284,-0.279126 0.8282719,0.03791 0.048051,0.10126 0.054456,0.344417 0.054456,2.067262 0,1.073878 0.01093,1.952505 0.024289,1.952505 0.013359,0 0.3070027,-0.281074 0.6525422,-0.624609 0.3937068,-0.391422 0.6631394,-0.633266 0.721697,-0.647798 0.3771339,-0.0936 0.7034099,0.28201 0.5659859,0.651556 -0.03948,0.106174 -2.0679238,2.159203 -2.2018019,2.228492 -0.1117459,0.05784 -0.2311347,0.07849 -0.3559322,0.06158 z"
     id="path4751"
     inkscape:connector-curvature="0" />
  <path
     style="fill:#e1e1e1;fill-opacity:1;stroke:none;stroke-width:0;stroke-miterlimit:0;stroke-dasharray:none;stroke-dashoffset:0;stroke-opacity:1"
     d="M 1.3256854,8.4488412 C 1.2466328,8.419943 1.1207309,8.2957139 1.0682273,8.1948035 0.96178709,7.9902287 1.0492309,7.7234404 1.2660535,7.5912421 c 0.109246,-0.066608 0.1844596,-0.06736 6.737598,-0.06736 6.5090945,0 6.6290475,0.00118 6.7354465,0.066052 0.311129,0.1897076 0.318187,0.602542 0.01378,0.8059006 l -0.115183,0.076947 -6.6305798,-0.00268 C 4.3602939,8.468633 1.3536515,8.4590643 1.3256854,8.4488412 Z"
     id="path4753"
     inkscape:connector-curvature="0" />
</svg>
